<svg xmlns="http://www.w3.org/2000/svg" viewBox="0 0 900 700" role="img" aria-label="Fruits et legumes">
  <defs>
    <linearGradient id="bg" x1="0" y1="0" x2="1" y2="1">
      <stop offset="0" stop-color="#e9f4df"/>
      <stop offset="1" stop-color="#fff0c7"/>
    </linearGradient>
  </defs>
  <rect width="900" height="700" fill="url(#bg)"/>
  <path d="M115 515c150-85 490-98 670 0v82H115z" fill="#164b35" opacity=".18"/>
  <g transform="translate(122 140)">
    <circle cx="178" cy="300" r="100" fill="#db5038"/>
    <path d="M164 198c-2-42 31-68 75-75-2 45-31 72-75 75z" fill="#437a4d"/>
    <path d="M161 204c-24-37-13-77 22-106 20 42 11 78-22 106z" fill="#5c914f"/>
    <circle cx="360" cy="292" r="88" fill="#f2b43d"/>
    <path d="M342 203c2-42 38-61 83-61-8 43-40 64-83 61z" fill="#437a4d"/>
    <ellipse cx="540" cy="286" rx="80" ry="115" fill="#437a4d" transform="rotate(-18 540 286)"/>
    <path d="M476 228c64 42 109 96 132 164" fill="none" stroke="#f8f5ec" stroke-width="8" opacity=".5"/>
    <ellipse cx="650" cy="318" rx="56" ry="142" fill="#7c9f3d" transform="rotate(30 650 318)"/>
    <path d="M590 217c41 86 77 154 119 242" fill="none" stroke="#f8f5ec" stroke-width="8" opacity=".42"/>
    <rect x="70" y="388" width="670" height="72" rx="18" fill="#8b5b30"/>
    <rect x="103" y="420" width="602" height="94" rx="12" fill="#6f4729"/>
    <g fill="none" stroke="#c68a2d" stroke-width="10" opacity=".55">
      <path d="M150 414v94"/>
      <path d="M258 414v94"/>
      <path d="M366 414v94"/>
      <path d="M474 414v94"/>
      <path d="M582 414v94"/>
    </g>
  </g>
</svg>
